# xmcd
#
# Track frame offsets:
#	150
#	18172
#	31490
#	43835
#	57005
#	75755
#	90540
#	108887
#	121162
#	131602
#	149110
#	159952
#	174897
#	185400
#	199130
#	207105
#	223205
#	241682
#	256192
#	276957
#	288987
#	301532
#	313020
#
# Disc length: 4383 seconds
#
# Revision: 2
# Processed by: cddbd v1.5.2PL0 Copyright (c) Steve Scherf et al.
# Submitted via: dBpowerAMP V4.0
#
DISCID=32111d17
DTITLE=Various Artist - The All Time Greatest Country Songs of the Mille
DYEAR=1998
DGENRE=Country
TTITLE0=Trisha Yearwood - How do i live
TTITLE1=Kenny Rogers - Ruby don't take your love to town
TTITLE2=Nilsson - Everybody's talkin'
TTITLE3=Charlie Rich - Behind closed doors
TTITLE4=Juice Newton - Angel of the morning
TTITLE5=Bob Dylan - Lay lady lay
TTITLE6=Olivia Newton John - I honesty love you
TTITLE7=Patsy Cline - Crazy
TTITLE8=Jim Reeves - He'll have to go
TTITLE9=Linda Ronstadt - Blue Bayou
TTITLE10=Doly Parton, Loretta Lynn and Tammy Wynette - Silver threads and golden needles
TTITLE11=Billy Jo Spears - I will survive
TTITLE12=Everly Brothers - Bye bye love
TTITLE13=Reba McEntire - Cathy's clown
TTITLE14=John D Loudermilk - Languafe of love
TTITLE15=Shania Twain - Honey i'm home
TTITLE16=Kris Kristifferson - Me and Bobby McGee
TTITLE17=John Denver - Take me home country roads
TTITLE18=Shawn Colvin - I don't know why
TTITLE19=Glen Campbell - By the time i get to Phoenix
TTITLE20=Roy Orbinson - Crying
TTITLE21=Crystal Gayle - Don't it maken my brown eyes blue
TTITLE22=Willie Nelson - Always on my mind
EXTD=
EXTT0=
EXTT1=
EXTT2=
EXTT3=
EXTT4=
EXTT5=
EXTT6=
EXTT7=
EXTT8=
EXTT9=
EXTT10=
EXTT11=
EXTT12=
EXTT13=
EXTT14=
EXTT15=
EXTT16=
EXTT17=
EXTT18=
EXTT19=
EXTT20=
EXTT21=
EXTT22=
PLAYORDER=
